<svg width="18" height="18" viewBox="0 0 18 18" fill="none" xmlns="http://www.w3.org/2000/svg">
<path fill-rule="evenodd" clip-rule="evenodd" d="M9.486 1.8L11.7167 6.21933L16.01 6.64467C16.2187 6.66201 16.3983 6.79917 16.4699 6.99597C16.5415 7.19277 16.4921 7.41325 16.3433 7.56067L12.81 11.0627L14.12 15.8213C14.1748 16.0275 14.1035 16.2466 13.9379 16.3811C13.7723 16.5156 13.5433 16.5405 13.3527 16.4447L9 14.2893L4.65334 16.442C4.46275 16.5378 4.23368 16.513 4.06811 16.3785C3.90254 16.244 3.83126 16.0248 3.886 15.8187L5.196 11.06L1.66 7.558C1.51126 7.41058 1.46185 7.1901 1.53347 6.9933C1.60508 6.79651 1.78463 6.65934 1.99334 6.642L6.28667 6.21667L8.514 1.8C8.6074 1.61759 8.79507 1.50284 9 1.50284C9.20493 1.50284 9.39261 1.61759 9.486 1.8Z" stroke="#202224" stroke-width="1.2" stroke-linecap="round" stroke-linejoin="round"/>
</svg>
