<svg width="24" height="24" viewBox="0 0 24 24" fill="none" xmlns="http://www.w3.org/2000/svg">
<g opacity="" id="snig">
<rect opacity="0.01" width="24" height="24" fill="#4379EE"/>
<path fill-rule="evenodd" clip-rule="evenodd" d="M6.3773 3.69212C10.3565 1.00345 15.6852 1.52313 19.0699 4.92999L19.1199 4.94999C22.5268 8.33475 23.0465 13.6634 20.3578 17.6426C17.6691 21.6218 12.5314 23.1279 8.11991 21.23C7.91803 21.1449 7.69744 21.1138 7.47991 21.14L3.19991 22H2.99991C2.72721 22.0069 2.46351 21.9022 2.26991 21.71C2.03251 21.4714 1.93104 21.1294 1.99991 20.8L2.87991 16.57C2.91727 16.3525 2.8858 16.1288 2.78991 15.93C0.892007 11.5185 2.39807 6.3808 6.3773 3.69212ZM6.99991 12C6.99991 12.5523 7.44763 13 7.99991 13C8.5522 13 8.99991 12.5523 8.99991 12C8.99991 11.4477 8.5522 11 7.99991 11C7.44763 11 6.99991 11.4477 6.99991 12ZM11.9999 13C11.4476 13 10.9999 12.5523 10.9999 12C10.9999 11.4477 11.4476 11 11.9999 11C12.5522 11 12.9999 11.4477 12.9999 12C12.9999 12.5523 12.5522 13 11.9999 13ZM14.9999 12C14.9999 12.5523 15.4476 13 15.9999 13C16.5522 13 16.9999 12.5523 16.9999 12C16.9999 11.4477 16.5522 11 15.9999 11C15.4476 11 14.9999 11.4477 14.9999 12Z" fill="#4379EE"/>
</g>
</svg>
